<?xml version="1.0" standalone="no"?>
<!DOCTYPE svg PUBLIC "-//W3C//DTD SVG 20010904//EN"
 "http://www.w3.org/TR/2001/REC-SVG-20010904/DTD/svg10.dtd">
<svg version="1.0" xmlns="http://www.w3.org/2000/svg"
 width="16.000000pt" height="16.000000pt" viewBox="0 0 16.000000 16.000000"
 preserveAspectRatio="xMidYMid meet">
<metadata>
Created by potrace 1.11, written by Peter Selinger 2001-2013
</metadata>
<g transform="translate(0.000000,16.000000) scale(0.001391,-0.001391)"
fill="#000000" stroke="none">
<path d="M5510 9479 c-747 -56 -1426 -309 -2005 -749 -120 -91 -285 -233 -352
-302 l-43 -43 1320 -1320 1320 -1320 1325 1325 1325 1325 -38 38 c-192 200
-572 474 -877 633 -597 312 -1316 463 -1975 413z"/>
<path d="M2979 8253 c-13 -16 -12 -17 4 -4 9 7 17 15 17 17 0 8 -8 3 -21 -13z"/>
<path d="M8520 8266 c0 -2 8 -10 18 -17 15 -13 16 -12 3 4 -13 16 -21 21 -21
13z"/>
<path d="M2909 8173 c-13 -16 -12 -17 4 -4 9 7 17 15 17 17 0 8 -8 3 -21 -13z"/>
<path d="M8590 8186 c0 -2 8 -10 18 -17 15 -13 16 -12 3 4 -13 16 -21 21 -21
13z"/>
<path d="M7633 6230 l-1373 -1375 0 -1402 c0 -1112 -3 -1402 -12 -1407 -25
-10 79 7 247 40 1256 248 2312 1144 2763 2344 326 868 319 1829 -19 2685 -56
143 -175 397 -215 460 l-19 30 -1372 -1375z"/>
<path d="M2422 7432 c-211 -426 -335 -852 -384 -1322 -16 -161 -16 -559 0
-720 69 -662 296 -1271 675 -1804 131 -185 233 -304 416 -486 558 -556 1233
-903 2025 -1040 66 -11 121 -18 124 -15 3 3 0 5 -6 5 -9 0 -12 338 -12 1393
l0 1392 -1379 1379 -1379 1379 -80 -161z"/>
<path d="M5338 2033 c7 -3 16 -2 19 1 4 3 -2 6 -13 5 -11 0 -14 -3 -6 -6z"/>
<path d="M6168 2033 c7 -3 16 -2 19 1 4 3 -2 6 -13 5 -11 0 -14 -3 -6 -6z"/>
<path d="M5438 2023 c6 -2 18 -2 25 0 6 3 1 5 -13 5 -14 0 -19 -2 -12 -5z"/>
<path d="M6053 2023 c9 -2 23 -2 30 0 6 3 -1 5 -18 5 -16 0 -22 -2 -12 -5z"/>
<path d="M5583 2013 c15 -2 37 -2 50 0 12 2 0 4 -28 4 -27 0 -38 -2 -22 -4z"/>
<path d="M5898 2013 c12 -2 32 -2 45 0 12 2 2 4 -23 4 -25 0 -35 -2 -22 -4z"/>
</g>
</svg>
